<?xml version="1.0" encoding="UTF-8"?>
<svg xmlns="http://www.w3.org/2000/svg" viewBox="0 0 122.88 26.53">
  <style>
    .st0{fill:#3395FF;}
    .st1{fill:#072654;}
  </style>
  <g>
    <polygon class="st1" points="11.19 9.03 7.94 21.47 0 21.47 1.61 15.35 11.19 9.03"/>
    <path class="st1" d="M28.09 5.08c1.86.01 3.17.42 3.91 1.25s.92 2.01.51 3.56c-.27 1.06-.82 2.03-1.59 2.8-.8.8-1.78 1.38-2.87 1.68.83.19 1.34.78 1.5 1.79l.03.22.6 5.09h-3.7l-.62-5.48a1.6 1.6 0 0 0-.52-.91c-.31-.16-.65-.24-1-.25h-.21h-2.28l-1.74 6.63h-3.46l4.3-16.38h6.04Zm94.79 4.29-4.4 6.34-5.19 7.52-.04.04-1.16 1.68-.04.06-.05-.08-1 1.44h-3.44l4.02-5.67-1.82-11.09h3.57l.9 7.23 4.36-6.19.06-.09.07-.1.07-.09.54-1.15h3.25Zm-30.48.88c.66.56 1.09 1.33 1.24 2.19.18 1.07.1 2.18-.21 3.22-.29 1.15-.78 2.23-1.46 3.19-.62.88-1.42 1.61-2.35 2.13-.88.48-1.85.73-2.85.73-.71.03-1.41-.15-2.02-.51a2.07 2.07 0 0 1-1.03-1.22l-.06-.2-1.77 6.75h-3.43l3.51-13.4.02-.06.01-.06.86-3.25h3.35l-.57 1.88-.01.08c.49-.7 1.15-1.27 1.91-1.64.76-.4 1.6-.6 2.45-.6.87-.02 1.73.26 2.43.8Zm-4.14 1.86c-.4-.01-.8.07-1.18.22-.37.15-.71.38-1 .66-.68.7-1.15 1.59-1.36 2.54-.3 1.11-.28 1.95.02 2.53.3.58.87.88 1.72.88.81.02 1.59-.29 2.18-.86.66-.69 1.12-1.55 1.33-2.49.29-1.09.27-1.96-.03-2.57-.28-.6-.85-.9-1.68-.9Zm15.4-2.12c.46.29.82.72 1.02 1.23l.07.19.44-1.66h3.36l-3.08 11.7h-3.37l.45-1.73c-.51.61-1.15 1.09-1.87 1.42-.7.32-1.45.49-2.21.49-.88.04-1.76-.21-2.48-.74-.66-.52-1.1-1.28-1.24-2.11-.18-1.06-.12-2.14.19-3.17.3-1.15.8-2.24 1.49-3.21.63-.89 1.44-1.64 2.38-2.18.86-.5 1.84-.77 2.83-.77.54 0 1.24.18 1.84.56Zm-1.74 2.15c-.41 0-.82.08-1.19.24-.38.16-.72.39-1.01.68-.67.71-1.15 1.59-1.36 2.55-.28 1.08-.28 1.9.04 2.49.31.59.89.87 1.75.87.4.01.8-.07 1.18-.22s.71-.38 1-.66c.59-.63 1.02-1.38 1.26-2.22l.08-.31c.3-1.11.29-1.96-.03-2.53-.31-.57-.88-.87-1.72-.87Zm-20.79-.51.22.09-.86 3.19c-.49-.26-1.03-.39-1.57-.39-.82-.03-1.62.24-2.27.75-.56.48-.97 1.12-1.18 1.82l-.07.27-1.6 6.11h-3.42l3.1-11.7h3.37l-.44 1.72c.42-.58.96-1.05 1.57-1.4.68-.39 1.44-.59 2.22-.59.35 0 .67.04.97.15Zm-12.63.56c.76.48 1.31 1.24 1.52 2.12.25 1.06.21 2.18-.11 3.22-.3 1.18-.83 2.28-1.58 3.22-.71.91-1.61 1.63-2.64 2.12-1.05.49-2.19.74-3.35.73-1.22 0-2.22-.24-3-.73-.77-.48-1.32-1.24-1.54-2.12-.24-1.06-.2-2.18.11-3.22.3-1.17.83-2.27 1.58-3.22.71-.9 1.62-1.63 2.66-2.12 1.06-.49 2.22-.75 3.39-.73 1.04.02 2.07.28 2.97.8Zm-3.66 1.91c-.81-.01-1.59.3-2.18.86-.61.58-1.07 1.43-1.36 2.57-.6 2.29-.02 3.43 1.74 3.43.8.02 1.57-.29 2.15-.85.6-.57 1.04-1.43 1.34-2.58.3-1.13.31-1.98.01-2.57-.3-.59-.87-.86-1.7-.86Zm-6.95-2.34-.6 2.32-7.55 6.67h6.06l-.72 2.73H45.05l.63-2.41 7.43-6.57h-5.65l.72-2.73h10.71Zm-16.93.23c.46.29.82.72 1.02 1.23l.07.19.44-1.66h3.37l-3.07 11.7h-3.37l.45-1.73c-.51.6-1.14 1.08-1.85 1.41s-1.48.5-2.27.5c-.88.04-1.74-.22-2.45-.74-.66-.52-1.1-1.28-1.24-2.11-.18-1.06-.12-2.14.19-3.17.29-1.15.8-2.24 1.49-3.21.63-.89 1.44-1.64 2.37-2.18.86-.5 1.84-.76 2.83-.76.54 0 1.24.18 1.84.55Zm-1.73 2.15c-.41 0-.81.08-1.19.24-.38.16-.72.39-1.01.68-.68.71-1.15 1.59-1.36 2.55-.28 1.08-.27 1.9.04 2.49.31.59.89.87 1.75.87.4.01.8-.07 1.18-.22.37-.15.72-.38 1-.66.59-.62 1.03-1.38 1.26-2.22l.08-.31c.29-1.11.26-1.94-.03-2.53-.31-.6-.88-.9-1.71-.9Zm-12.38-4.33h-3.21l-1.13 4.28h3.21c1.01 0 1.81-.17 2.35-.52.57-.37.98-.95 1.13-1.63.2-.72.11-1.27-.27-1.62-.58-.36-1.27-.54-2.28-.54Z"/>
    <polygon class="st0" points="18.4 0 12.76 21.47 8.89 21.47 12.7 6.93 6.86 10.78 7.9 6.95 18.4 0"/>
  </g>
</svg>
